<?xml version="1.0" encoding="UTF-8" standalone="no"?>
<!-- Created with Inkscape (http://www.inkscape.org/) -->

<svg
   width="24.362mm"
   height="24.204mm"
   viewBox="0 0 24.361999 24.204"
   version="1.1"
   id="svg5"
   xml:space="preserve"
   inkscape:version="1.2.1 (9c6d41e410, 2022-07-14)"
   sodipodi:docname="wagen.svg"
   xmlns:inkscape="http://www.inkscape.org/namespaces/inkscape"
   xmlns:sodipodi="http://sodipodi.sourceforge.net/DTD/sodipodi-0.dtd"
   xmlns="http://www.w3.org/2000/svg"
   xmlns:svg="http://www.w3.org/2000/svg"><sodipodi:namedview
     id="namedview7"
     pagecolor="#ffffff"
     bordercolor="#000000"
     borderopacity="0.25"
     inkscape:showpageshadow="2"
     inkscape:pageopacity="0.0"
     inkscape:pagecheckerboard="0"
     inkscape:deskcolor="#d1d1d1"
     inkscape:document-units="mm"
     showgrid="false"
     inkscape:zoom="5.6568543"
     inkscape:cx="104.74019"
     inkscape:cy="109.42477"
     inkscape:window-width="2560"
     inkscape:window-height="1369"
     inkscape:window-x="-8"
     inkscape:window-y="-8"
     inkscape:window-maximized="1"
     inkscape:current-layer="layer1" /><defs
     id="defs2" /><g
     inkscape:label="Layer 1"
     inkscape:groupmode="layer"
     id="layer1"><g
       id="g855"
       transform="translate(-1.7194223,-1.2471959)"
       style=""><path
         id="path1914"
         style="stroke-width:0.665048;stroke-linecap:round"
         d="m 14.15252,3.9225313 a 1.9414506,2.1471039 0 0 0 -1.941338,2.146696 1.9414506,2.1471039 0 0 0 0.0015,0.0348 h 3.880329 a 1.9414506,2.1471039 0 0 0 0.0014,-0.0348 1.9414506,2.1471039 0 0 0 -1.94181,-2.146696 z" /><rect
         style="stroke-width:0.710089;stroke-linecap:round"
         id="rect1922"
         width="1.6043125"
         height="0.9415108"
         x="9.1420803"
         y="5.2771945"
         ry="0.4707554" /><rect
         style="stroke-width:0.710089;stroke-linecap:round"
         id="rect1922-4"
         width="1.6043125"
         height="0.9415108"
         x="17.570532"
         y="5.2657046"
         ry="0.4707554" /><rect
         style="stroke-width:0.710089;stroke-linecap:round"
         id="rect1922-7"
         width="1.5845107"
         height="0.95327729"
         x="-2.4264269"
         y="13.671755"
         ry="0.47663864"
         transform="matrix(0.02940639,-0.99956754,0.9995885,0.02868494,0,0)" /><rect
         style="stroke-width:0.710117;stroke-linecap:round"
         id="rect1922-7-4"
         width="1.5947018"
         height="0.94725817"
         x="9.1084547"
         y="13.672272"
         ry="0.47362909"
         transform="matrix(0.72091576,-0.69302271,0.7019267,0.71224919,0,0)" /><rect
         style="stroke-width:0.710116;stroke-linecap:round"
         id="rect1922-7-4-9"
         width="1.5932558"
         height="0.9481169"
         x="-10.526807"
         y="5.6010203"
         ry="0.47405845"
         transform="matrix(-0.66835969,-0.74383824,0.75203021,-0.65912864,0,0)" /><path
         id="rect2003"
         style="stroke-width:0.666042;stroke-linecap:round"
         d="m 18.083281,6.7206914 -14.5045407,0.0181 c -1.030014,10e-4 -1.859318,0.8293 -1.859318,1.85931 V 20.574121 c 0,1.03001 0.829303,1.85932 1.859318,1.85932 h 0.933793 a 3.0290008,3.1184649 0 0 0 3.024105,2.99051 3.0290008,3.1184649 0 0 0 3.0246217,-2.99051 h 6.717936 a 3.0290008,3.1184649 0 0 0 3.025655,3.01583 3.0290008,3.1184649 0 0 0 3.025139,-3.01583 h 0.890384 c 1.030015,0 1.859319,-0.82931 1.859319,-1.85932 v -3.33985 c 0,0 -0.02508,-0.38316 -0.08113,-0.57154 -0.0548,-0.18411 -0.234095,-0.50075 -0.234095,-0.50075 L 20.246459,7.7134014 c 0,0 -0.267179,-0.37957 -0.807186,-0.78496 -0.260204,-0.19534 -1.35599,-0.20774 -1.35599,-0.20774 z m -1.545642,2.53576 h 3.661792 l 3.769796,5.8022296 h -7.431588 z m -9.4206127,1.4758796 1.405599,5.2e-4 -0.0016,2.03812 h 2.1471557 v 1.40611 H 8.5205093 l -0.0016,2.25619 -1.405599,-0.001 0.0016,-2.25516 h -2.147156 v -1.40611 h 2.147672 z m 0.394291,9.50278 a 2.1599205,2.1727011 0 0 1 2.160075,2.17248 2.1599205,2.1727011 0 0 1 -2.160075,2.17299 2.1599205,2.1727011 0 0 1 -2.160075,-2.17299 2.1599205,2.1727011 0 0 1 2.160075,-2.17248 z m 12.7935337,0.0491 a 2.1599205,2.1727011 0 0 1 2.159558,2.17248 2.1599205,2.1727011 0 0 1 -2.159558,2.17299 2.1599205,2.1727011 0 0 1 -2.160075,-2.17299 2.1599205,2.1727011 0 0 1 2.160075,-2.17248 z" /></g></g></svg>
